Coordinates
version=1
nRows=13
nColumns=63
inDegrees=yes

Units are S.I. units (second, meters, Newtons, ...)
If the header above contains a line with 'inDegrees', this indicates whether rotational values are in degrees (yes) or radians (no).

endheader
time	pelvis_tilt	pelvis_list	pelvis_rotation	pelvis_tx	pelvis_ty	pelvis_tz	hip_flexion_r	hip_adduction_r	hip_rotation_r	knee_angle_r	knee_angle_r_beta	ankle_angle_r	subtalar_angle_r	mtp_angle_r	hip_flexion_l	hip_adduction_l	hip_rotation_l	knee_angle_l	knee_angle_l_beta	ankle_angle_l	subtalar_angle_l	mtp_angle_l	L5_S1_Flex_Ext	L5_S1_Lat_Bending	L5_S1_axial_rotation	L4_L5_Flex_Ext	L4_L5_Lat_Bending	L4_L5_axial_rotation	L3_L4_Flex_Ext	L3_L4_Lat_Bending	L3_L4_axial_rotation	L2_L3_Flex_Ext	L2_L3_Lat_Bending	L2_L3_axial_rotation	L1_L2_Flex_Ext	L1_L2_Lat_Bending	L1_L2_axial_rotation	L1_T12_Flex_Ext	L1_T12_Lat_Bending	L1_T12_axial_rotation	Abs_r3	Abs_r2	Abs_r1	Abs_t1	Abs_t2	neck_flexion	neck_bending	neck_rotation	arm_flex_r	arm_add_r	arm_rot_r	elbow_flex_r	pro_sup_r	wrist_flex_r	wrist_dev_r	arm_flex_l	arm_add_l	arm_rot_l	elbow_flex_l	pro_sup_l	wrist_flex_l	wrist_dev_l
7.133333	-4.811970	-4.206196	80.963489	0.299986	0.829233	0.721508	0.479894	-1.278981	12.346562	0.283733	0.004952	13.212218	-13.965610	0.000000	3.062467	-2.198320	-8.651116	8.705417	0.151938	23.189205	10.234147	0.000000	-0.049197	0.365778	-1.762627	-0.091363	0.486485	-1.872791	-0.080825	0.889352	-1.872791	-0.056227	0.889352	-1.542298	-0.045684	0.745894	-1.432134	-0.028111	0.566590	-1.321970	-0.351408	4.137752	-9.803201	0.000000	0.000000	10.015900	-1.696536	14.556099	12.820513	-15.228702	41.627767	136.353998	73.346211	5.458191	26.470969	4.312430	-40.163228	1.710415	38.235525	86.847582	-23.710907	-0.441440
7.150000	-4.985525	-4.227360	80.927647	0.301475	0.828730	0.721444	0.582948	-1.390763	12.698928	0.351819	0.006140	13.578423	-14.031068	0.000000	3.265260	-2.076667	-8.746371	8.982790	0.156779	23.213859	9.836204	0.000000	-0.052152	0.352169	-1.754942	-0.096851	0.468385	-1.864626	-0.085680	0.856264	-1.864626	-0.059604	0.856264	-1.535574	-0.048428	0.718144	-1.425890	-0.029800	0.545510	-1.316207	-0.372515	3.983809	-9.760461	0.000000	0.000000	9.945385	-0.712735	15.046658	11.874211	-15.524899	41.629247	136.129186	69.338697	5.888666	27.434499	3.040303	-39.146724	-0.935554	41.343668	86.876787	-21.188133	1.050234
7.166667	-5.111603	-4.214905	80.964756	0.302698	0.828272	0.721312	0.643793	-1.459547	12.963673	0.428525	0.007479	13.906400	-14.138939	0.000000	3.432630	-1.989450	-8.790154	9.266120	0.161724	23.275829	9.487235	0.000000	-0.055503	0.340087	-1.762270	-0.103075	0.452316	-1.872412	-0.091186	0.826888	-1.872412	-0.063435	0.826888	-1.541986	-0.051540	0.693506	-1.431844	-0.031715	0.526795	-1.321703	-0.396455	3.847136	-9.801217	0.000000	0.000000	9.812384	0.334461	15.495617	11.121935	-15.958287	41.691334	135.844981	65.826162	6.532067	28.831574	1.830389	-37.949458	-3.471721	44.465210	86.836781	-18.863362	2.554332
7.183333	-5.191803	-4.184830	81.058455	0.303657	0.827842	0.721097	0.665110	-1.490518	13.126813	0.494289	0.008627	14.201740	-14.216847	0.000000	3.569641	-1.935653	-8.773585	9.544554	0.166584	23.364586	9.180351	0.000000	-0.058345	0.331056	-1.788209	-0.108353	0.440305	-1.899972	-0.095855	0.804931	-1.899972	-0.066683	0.804931	-1.564683	-0.054179	0.675090	-1.452919	-0.033338	0.512806	-1.341156	-0.416753	3.744976	-9.945480	0.000000	0.000000	9.685763	1.337243	15.905800	10.549832	-16.478897	41.761148	135.534833	63.047772	7.462415	30.587814	0.569843	-36.595002	-6.064077	47.671285	86.901832	-16.788151	4.040632
7.200000	-5.221366	-4.154053	81.209096	0.304343	0.827432	0.720816	0.657527	-1.478938	13.182336	0.541002	0.009442	14.446297	-14.265248	0.000000	3.687748	-1.921644	-8.668289	9.808731	0.171195	23.474975	8.912179	0.000000	-0.059726	0.327766	-1.826045	-0.110917	0.435928	-1.940173	-0.098124	0.796929	-1.940173	-0.068261	0.796929	-1.597789	-0.055462	0.668380	-1.483662	-0.034127	0.507709	-1.369534	-0.426616	3.707750	-10.155915	0.000000	0.000000	9.638248	2.259884	16.341527	10.069144	-17.059128	41.758180	135.189249	61.185617	8.597625	32.294539	-0.716486	-35.130701	-8.571351	50.947741	87.030262	-14.916607	5.514967
7.216667	-5.214549	-4.117177	81.385039	0.304775	0.827065	0.720536	0.619966	-1.444690	13.232632	0.570338	0.009954	14.618439	-14.360071	0.000000	3.772216	-1.926151	-8.434109	10.038037	0.175197	23.576075	8.577688	0.000000	-0.060656	0.327406	-1.856717	-0.112644	0.435450	-1.972762	-0.099652	0.796055	-1.972762	-0.069324	0.796055	-1.624628	-0.056325	0.667647	-1.508583	-0.034659	0.507152	-1.392538	-0.433260	3.703683	-10.326504	0.000000	0.000000	9.702310	3.027379	16.582619	9.556176	-17.670552	41.523545	134.750355	60.183083	10.055711	33.522579	-1.878915	-33.640653	-10.491074	54.226835	87.120544	-13.494524	7.143444
7.233333	-5.174420	-4.085923	81.574598	0.304976	0.826729	0.720322	0.569856	-1.391159	13.250345	0.586787	0.010241	14.722259	-14.446836	0.000000	3.834379	-1.952239	-8.140148	10.223249	0.178429	23.673666	8.233947	0.000000	-0.060839	0.330298	-1.880759	-0.112984	0.439296	-1.998306	-0.099952	0.803087	-1.998306	-0.069533	0.803087	-1.645664	-0.056495	0.673544	-1.528116	-0.034763	0.511632	-1.410569	-0.434566	3.736397	-10.460215	0.000000	0.000000	9.896082	3.624738	16.688244	8.987356	-18.247524	41.080287	134.162880	59.972157	11.700096	33.999142	-3.010964	-32.161138	-12.148780	57.612960	87.242973	-12.160851	8.995669
7.250000	-5.114610	-4.060190	81.757944	0.304976	0.826420	0.720207	0.512026	-1.332948	13.265107	0.593113	0.010352	14.761383	-14.532787	0.000000	3.871620	-1.988786	-7.834896	10.351209	0.180663	23.767210	7.917252	0.000000	-0.059978	0.333976	-1.891296	-0.111386	0.444188	-2.009502	-0.098539	0.812029	-2.009502	-0.068549	0.812029	-1.654884	-0.055696	0.681043	-1.536678	-0.034272	0.517328	-1.418472	-0.428420	3.778000	-10.518820	0.000000	0.000000	10.222422	4.057466	16.631404	8.325831	-18.755407	40.433400	133.406463	60.364428	13.435855	33.700882	-4.113612	-30.691591	-13.695494	61.118004	87.462954	-10.627911	11.080386
7.266667	-5.042374	-4.040961	81.930594	0.304790	0.826128	0.720271	0.455394	-1.277365	13.267223	0.590946	0.010314	14.755522	-14.577923	0.000000	3.892278	-2.030353	-7.556786	10.417688	0.181823	23.874661	7.629515	0.000000	-0.058158	0.336838	-1.877765	-0.108005	0.447994	-1.995125	-0.095548	0.818988	-1.995125	-0.066469	0.818988	-1.643044	-0.054006	0.686880	-1.525684	-0.033231	0.521762	-1.408324	-0.415417	3.810377	-10.443564	0.000000	0.000000	10.654780	4.293690	16.331516	7.531475	-19.165605	39.547553	132.500066	61.416974	15.243513	32.804220	-5.064711	-29.264488	-14.924948	64.647436	87.782389	-8.887127	13.152365
7.283333	-4.959682	-4.030352	82.068505	0.304448	0.825842	0.720527	0.406672	-1.225891	13.298157	0.579213	0.010109	14.719899	-14.581675	0.000000	3.897629	-2.075359	-7.320234	10.416415	0.181801	24.002976	7.332833	0.000000	-0.055449	0.337695	-1.833519	-0.102974	0.449135	-1.948114	-0.091097	0.821072	-1.948114	-0.063372	0.821072	-1.604329	-0.051490	0.688628	-1.489735	-0.031683	0.523090	-1.375140	-0.396065	3.820076	-10.197485	0.000000	0.000000	11.190476	4.368275	15.749610	6.571264	-19.488838	38.459840	131.440136	63.157131	16.928329	31.318360	-5.818625	-27.824579	-15.871083	68.211303	88.251599	-6.784559	15.235175
7.300000	-4.869582	-4.030331	82.205612	0.303909	0.825559	0.720964	0.367519	-1.180469	13.324045	0.557771	0.009735	14.682040	-14.535515	0.000000	3.903019	-2.119662	-7.121051	10.359732	0.180811	24.181601	7.048601	0.000000	-0.051575	0.336712	-1.757238	-0.095780	0.447827	-1.867066	-0.084732	0.818681	-1.867066	-0.058945	0.818681	-1.537583	-0.047892	0.686623	-1.427756	-0.029470	0.521566	-1.317929	-0.368394	3.808950	-9.773232	0.000000	0.000000	11.811930	4.216623	14.852697	5.420645	-19.691059	37.112714	130.268133	65.596203	18.585014	29.671100	-6.329005	-26.391533	-16.392518	71.762946	88.750896	-4.511792	17.043956
7.316667	-4.758922	-4.048622	82.356230	0.303186	0.825267	0.721527	0.342543	-1.123851	13.309347	0.527011	0.009198	14.678525	-14.401142	0.000000	3.921813	-2.182710	-6.981866	10.264109	0.179143	24.436599	6.835865	0.000000	-0.046267	0.335193	-1.652578	-0.085922	0.445807	-1.755864	-0.076012	0.814988	-1.755864	-0.052879	0.814988	-1.446005	-0.042964	0.683526	-1.342719	-0.026437	0.519214	-1.239433	-0.330480	3.791771	-9.191141	0.000000	0.000000	12.544452	3.870308	13.645045	4.097840	-19.765655	35.513784	128.973587	68.698009	20.297272	28.021910	-6.600606	-24.965931	-16.389165	75.279965	89.056177	-2.370389	18.403006
7.333333	-4.638067	-4.087316	82.534682	0.302255	0.824962	0.722207	0.338166	-1.066474	13.255045	0.484067	0.008449	14.739468	-14.188103	0.000000	3.963259	-2.245399	-6.831273	10.131746	0.176832	24.754149	6.626739	0.000000	-0.039873	0.332324	-1.535011	-0.074048	0.441992	-1.630949	-0.065507	0.808014	-1.630949	-0.045571	0.808014	-1.343135	-0.037026	0.677676	-1.247197	-0.022783	0.514771	-1.151258	-0.284808	3.759321	-8.537272	0.000000	0.000000	13.377312	3.349198	12.171567	2.709270	-19.716566	33.770121	127.548604	72.277069	21.984173	26.666332	-6.731241	-23.530450	-16.058468	78.862977	89.083428	-0.340627	19.514841
